<svg width="154" height="54" viewBox="0 0 154 54" fill="none" xmlns="http://www.w3.org/2000/svg">
<path d="M129.148 49.058C125.573 49.058 123.216 46.9987 123.216 43.5532C123.216 39.0385 126.06 37.2167 135.242 37.2167V37.0979C135.242 34.0881 133.942 32.8208 131.179 32.8208C128.945 32.8208 127.482 33.3752 125.492 35.6722L123.582 33.6524C125.898 31.1178 128.051 30.1674 131.383 30.1674C137.476 30.1674 138.208 34.1673 138.208 37.0583V48.5828H135.242V45.8106C133.698 47.8699 131.545 49.058 129.148 49.058ZM129.554 46.4838C131.545 46.4838 133.211 45.4146 135.242 42.3651V39.6325C128.213 39.6325 126.182 40.583 126.182 43.5532C126.182 45.6917 127.442 46.4838 129.554 46.4838Z" fill="#FFEDCA"/>
<path d="M105.841 48.5829H102.875V30.6824H105.841V37.9693H115.998V30.6824H118.964V48.5829H115.998V40.6623H105.841V48.5829Z" fill="#FFEDCA"/>
<path d="M97.8322 48.5829H94.866V35.1575L84.3035 48.5829H81.5815V30.6824H84.5471V43.989L95.0696 30.6824H97.8322V48.5829Z" fill="#FFEDCA"/>
<path d="M67.2871 49.058C63.712 49.058 61.3555 46.9987 61.3555 43.5532C61.3555 39.0385 64.1993 37.2167 73.3812 37.2167V37.0979C73.3812 34.0881 72.0807 32.8208 69.318 32.8208C67.0841 32.8208 65.6214 33.3752 63.6305 35.6722L61.7211 33.6524C64.0371 31.1178 66.1902 30.1674 69.5216 30.1674C75.6157 30.1674 76.3468 34.1673 76.3468 37.0583V48.5828H73.3812V45.8106C71.837 47.8699 69.6839 49.058 67.2871 49.058ZM67.693 46.4838C69.6839 46.4838 71.3496 45.4146 73.3812 42.3651V39.6325C66.3524 39.6325 64.3215 40.583 64.3215 43.5532C64.3215 45.6917 65.5807 46.4838 67.693 46.4838Z" fill="#FFEDCA"/>
<path d="M50.8226 46.4048C53.5445 46.4048 54.8852 44.8207 54.8852 43.1177C54.8852 41.5336 53.3414 40.6228 51.3101 40.6228H48.8318V37.9694H51.3101C53.1383 37.9694 54.3164 36.9001 54.3164 35.4348C54.3164 33.8902 53.3414 32.9002 51.3507 32.9002C48.9537 32.9002 48.0193 33.6131 46.2317 35.6328C46.1911 35.5932 44.241 33.7714 44.241 33.7714C46.3536 31.1972 48.4256 30.2072 51.3507 30.2072C55.1289 30.2072 57.2009 32.4646 57.2009 35.0783C57.2009 36.9793 56.2665 38.3258 54.8039 39.1971C56.7134 40.0287 57.851 41.4544 57.851 43.3158C57.851 46.2068 55.5353 49.1374 50.8226 49.1374C48.1006 49.1374 46.1099 48.385 43.7129 45.8107L45.7036 43.9098C47.6537 45.8107 48.6693 46.4048 50.8226 46.4048Z" fill="#FFEDCA"/>
<path d="M23.7358 30.6824H26.7016V43.989L37.2239 30.6824H39.9865V48.5829H37.0208V35.1575L26.4578 48.5829H23.7358V30.6824Z" fill="#FFEDCA"/>
<path d="M2.84387 48.5829V53.8105H0V45.8899H2.27509C4.91582 41.692 4.91582 35.3951 4.91582 30.6824H17.7538V45.8899H20.3946V53.8105H17.5507V48.5829H2.84387ZM14.7881 45.8899V33.3754H7.88158C7.88158 37.6525 7.39408 41.9296 5.56585 45.8899H14.7881Z" fill="#FFEDCA"/>
<path d="M93.6294 18.8906C90.0543 18.8906 87.6982 16.8313 87.6982 13.3858C87.6982 8.87105 90.5417 7.04932 99.7235 7.04932V6.9305C99.7235 3.9207 98.4236 2.6534 95.661 2.6534C93.4265 2.6534 91.9637 3.20784 89.9729 5.50482L88.0635 3.48506C90.3794 0.950474 92.5325 0 95.864 0C101.958 0 102.689 3.99991 102.689 6.89095V18.4154H99.7235V15.6432C98.1799 17.7026 96.0262 18.8906 93.6294 18.8906ZM94.036 16.3164C96.0262 16.3164 97.6919 15.2471 99.7235 12.1977V9.46514C92.6948 9.46514 90.6638 10.4156 90.6638 13.3858C90.6638 15.5244 91.923 16.3164 94.036 16.3164Z" fill="#FFEDCA"/>
<path d="M66.0723 18.3761V15.5247C66.4375 15.6831 66.9656 15.7227 67.2907 15.7227C70.1348 15.7227 70.9066 11.4852 70.9066 0.515137H83.4605V18.4157H80.4943V3.20814H73.7913C73.7913 13.5445 72.2879 18.5741 67.6566 18.5741C67.1285 18.5741 66.6004 18.4949 66.0723 18.3761Z" fill="#FFEDCA"/>
<path d="M55.3587 2.69301C51.5804 2.69301 48.8178 5.74243 48.8178 9.46514C48.8178 13.1482 51.5804 16.1976 55.3587 16.1976C59.1776 16.1976 61.8184 13.1482 61.8184 9.46514C61.8184 5.74243 59.1776 2.69301 55.3587 2.69301ZM45.8521 9.46514C45.8521 4.23752 49.9959 0 55.3587 0C60.7214 0 64.784 4.23752 64.784 9.46514C64.784 14.6531 60.7214 18.8906 55.3587 18.8906C49.9959 18.8906 45.8521 14.6531 45.8521 9.46514Z" fill="#FFEDCA"/>
<path d="M28.4565 18.4157V0.515137H31.4223V7.80211H32.8848L40.0758 0.515137H43.7321L35.4037 8.99016C38.0444 10.0594 39.832 15.7623 43.0009 15.7623C43.3665 15.7623 43.7321 15.6831 44.1384 15.5247V18.4157C43.529 18.5741 42.9602 18.6533 42.4727 18.6533C37.5569 18.6533 36.2162 12.1584 33.1286 10.4951H31.4223V18.4157H28.4565Z" fill="#FFEDCA"/>
<path d="M10.4284 15.7227V0.515137H13.3941V15.7227H20.3007V0.515137H23.2664V18.4157H0.556152V0.515137H3.52189V15.7227H10.4284Z" fill="#FFEDCA"/>
<path d="M147.065 27.0299C150.388 27.0299 153.088 29.6569 153.123 32.9237C153.123 36.1905 150.388 38.8175 147.065 38.8175C143.707 38.8175 141.006 36.1568 141.006 32.9237C141.006 29.6569 143.741 27.0299 147.065 27.0299ZM144.918 28.8486V36.7294H149.834V35.2475C149.834 33.7993 149.35 32.8227 148.104 32.3849C148.519 32.2501 148.727 31.9807 148.899 31.8123C149.176 31.4755 149.315 31.0714 149.315 30.6672C149.315 30.3305 149.211 29.7242 148.658 29.2864C148.276 28.9833 147.93 28.8486 147.099 28.8486H144.918ZM146.825 29.2534C147.136 29.2534 147.587 29.287 147.898 29.6911C148.071 29.8595 148.175 30.129 148.21 30.3984H146.79V30.8026H148.21C148.21 31.072 148.141 31.3414 147.898 31.6445C147.656 31.914 147.31 32.1497 146.79 32.1497V32.5539C148.175 32.5539 148.694 33.4632 148.729 35.1134V36.3259H147.829V33.6989H146.825V36.3259H146.029V29.2534H146.825Z" fill="#FFEDCA"/>
<path d="M89.5464 27.3952C86.3773 27.3952 83.9805 26.4447 82.3555 23.6329L84.7115 21.9696C85.9713 24.1082 87.0682 24.7418 89.5464 24.7418C92.0247 24.7418 93.1216 24.1082 94.3807 21.9696L96.7368 23.6329C95.1118 26.4447 92.715 27.3952 89.5464 27.3952Z" fill="#FFEDCA"/>
</svg>
