<svg width="61" height="61" viewBox="0 0 61 61" fill="none" xmlns="http://www.w3.org/2000/svg">
<path d="M51.9142 52.2178C51.9142 52.2178 41.3627 47.5332 38.0653 48.8814C34.7601 50.2336 30.5 61 30.5 61C30.5 61 26.1909 50.1651 22.8505 48.8462C19.5884 47.5566 9.27759 52.4037 9.27759 52.4037C9.27759 52.4037 13.571 41.4181 12.117 38.0641C10.7002 34.7864 0 30.499 0 30.499C0 30.499 10.7726 26.1647 12.1542 22.8498C13.5358 19.5369 9.03298 8.83309 9.03298 8.83309C9.03298 8.83309 19.6334 13.4766 22.9347 12.1166C26.2399 10.7606 30.5 0 30.5 0C30.5 0 34.9363 10.5512 38.1495 12.1538C41.666 13.9071 53.8104 10.833 53.8104 10.833C53.8104 10.833 47.8752 19.8285 48.881 22.9359C49.9808 26.3329 61 30.501 61 30.501C61 30.501 50.2352 34.8393 48.8458 38.1502C47.4564 41.4611 51.9122 52.2197 51.9122 52.2197L51.9142 52.2178Z" fill="#FFEDCA"/>
</svg>
